<svg xmlns="http://www.w3.org/2000/svg" width="24" height="24" viewBox="0 0 24 24"><path d="M8.296,11.628l0,-4.424c0,-0.841 0.146,-1.419 0.439,-1.733c0.292,-0.314 0.92,-0.471 1.884,-0.471l0,-2l-8.384,0l0,2c0.946,0 1.577,0.148 1.891,0.445c0.314,0.296 0.471,0.882 0.471,1.759l0,9.592c0,0.85 -0.148,1.43 -0.444,1.739c-0.297,0.31 -0.936,0.465 -1.918,0.465l0,2l8.384,0l0,-2c-0.938,0 -1.559,-0.153 -1.865,-0.458c-0.305,-0.305 -0.458,-0.887 -0.458,-1.746l0,-3.508l7.394,0l0,3.508c0,0.832 -0.144,1.408 -0.431,1.726c-0.288,0.319 -0.905,0.478 -1.852,0.478l0,2l8.358,0l0,-2c-0.955,0 -1.59,-0.146 -1.904,-0.438c-0.315,-0.292 -0.472,-0.881 -0.472,-1.766l0,-9.592c0,-0.859 0.151,-1.441 0.452,-1.746c0.301,-0.305 0.942,-0.458 1.924,-0.458l0,-2l-8.358,0l0,2c0.929,0 1.542,0.155 1.839,0.465c0.296,0.309 0.444,0.889 0.444,1.739l0,4.424l-7.394,0Z"/></svg>