<svg clip-rule="evenodd" fill-rule="evenodd" stroke-linejoin="round" stroke-miterlimit="1.41421" viewBox="0 0 456 73" xmlns="http://www.w3.org/2000/svg"><g fill-rule="nonzero" fill="#a3f"><path d="m42.557 24.768c2.886 0 5.016.4 6.389 1.2 1.372.8 2.059 2.16 2.059 4.08 0 3.712-1.602 9.664-4.805 17.856s-6.459 14.304-9.768 18.336c-2.816 3.584-6.97 5.376-12.461 5.376-2.182 0-4.505-.288-6.969-.864-1.549-7.04-4.172-15.104-7.868-24.192s-6.74-14.848-9.134-17.28c3.238-2.688 6.618-4.032 10.138-4.032 3.801 0 6.617 1.92 8.448 5.76 3.52 7.872 6.688 16.672 9.504 26.4 4.998-11.968 7.497-21.376 7.497-28.224 0-1.024-.105-2.016-.317-2.976 2.253-.96 4.682-1.44 7.287-1.44z"/><path d="m66.845 21.408c-2.675 0-4.946-.848-6.811-2.544-1.866-1.696-2.799-3.856-2.799-6.48 0-2.496.986-4.608 2.957-6.336s4.259-2.592 6.864-2.592 4.84.864 6.706 2.592c1.865 1.728 2.798 3.84 2.798 6.336 0 2.56-.986 4.704-2.957 6.432s-4.224 2.592-6.758 2.592zm.211 4.032c2.675 0 4.752.416 6.23 1.248 1.479.832 2.218 2.464 2.218 4.896 0 .384-.123 3.2-.37 8.448-.246 5.248-.369 9.184-.369 11.808 0 9.088.598 15.264 1.795 18.528-2.957.832-5.878 1.248-8.765 1.248-3.309 0-5.614-.528-6.917-1.584-1.302-1.056-1.953-2.608-1.953-4.656 0-1.024.053-3.424.158-7.2.106-3.776.159-6.784.159-9.024 0-9.152-.247-16.64-.74-22.464 2.676-.832 5.527-1.248 8.554-1.248z"/><path d="m127.67 65.952c-4.716 4.224-10.912 6.336-18.585 6.336-7.674 0-13.851-2.112-18.533-6.336s-7.022-9.856-7.022-16.896c0-7.36 2.34-13.248 7.022-17.664s10.859-6.624 18.533-6.624c7.673 0 13.869 2.208 18.585 6.624 4.717 4.416 7.076 10.304 7.076 17.664 0 7.04-2.359 12.672-7.076 16.896zm-8.659-14.976c0-4.864-.88-8.912-2.64-12.144s-4.189-4.848-7.286-4.848c-3.027 0-5.403 1.312-7.128 3.936s-2.587 6.08-2.587 10.368c0 4.224.862 7.728 2.587 10.512s4.101 4.176 7.128 4.176c3.168 0 5.614-1.104 7.339-3.312s2.587-5.104 2.587-8.688z"/><path d="m150.48 0c2.675 0 4.752.416 6.23 1.248 1.479.832 2.218 2.464 2.218 4.896 0 .384-.123 3.2-.37 8.448-.246 5.248-.369 9.184-.369 11.808v26.304c0 8.448.598 14.336 1.795 17.664-2.957.832-5.878 1.248-8.765 1.248-3.309 0-5.614-.528-6.917-1.584-1.302-1.056-1.953-2.608-1.953-4.656 0-1.024.053-3.264.158-6.72.106-3.456.159-6.272.159-8.448v-26.496c0-9.152-.247-16.64-.74-22.464 2.676-.832 5.527-1.248 8.554-1.248z"/><path d="m193.776 24.768c5.21 0 9.715 1.184 13.517 3.552 3.801 2.368 5.702 5.888 5.702 10.56 0 9.472-7.462 14.208-22.387 14.208-1.338 0-3.766-.064-7.286-.192 0 3.648 1.003 6.304 3.009 7.968 2.007 1.664 4.488 2.496 7.445 2.496 5.21 0 9.258-1.536 12.144-4.608 1.619.704 2.939 1.648 3.96 2.832s1.531 2.384 1.531 3.6c0 1.92-1.249 3.456-3.749 4.608-2.499 1.152-4.928 1.856-7.286 2.112s-4.629.384-6.811.384c-7.744 0-14.08-1.936-19.008-5.808s-7.392-9.776-7.392-17.712c0-5.248 1.355-9.744 4.065-13.488 2.711-3.744 6.02-6.432 9.927-8.064s8.113-2.448 12.619-2.448zm-.845 9.12c-2.534 0-4.752 1.04-6.653 3.12-1.9 2.08-2.886 5.136-2.956 9.168 1.971-.128 3.361-.24 4.171-.336.809-.096 1.971-.304 3.485-.624 1.513-.32 2.604-.752 3.273-1.296s1.285-1.312 1.848-2.304.845-2.224.845-3.696c0-1.024-.387-1.952-1.162-2.784-.774-.832-1.724-1.248-2.851-1.248z"/><path d="m226.301 53.952v-19.2c-3.661.064-6.794.288-9.399.672-.563-1.408-.844-2.752-.844-4.032 0-3.776 2.851-5.664 8.553-5.664h1.479c-.141-3.904-.352-7.168-.634-9.792 2.253-.832 4.822-1.248 7.709-1.248 1.901 0 3.397.08 4.488.24s2.147.688 3.168 1.584 1.531 2.208 1.531 3.936c0 1.024-.106 2.816-.317 5.376 7.322 0 13.13-.256 17.424-.768.493.896.739 2.272.739 4.128 0 3.392-2.076 5.184-6.23 5.376-2.675.128-6.723.192-12.144.192-.211 6.336-.317 12.672-.317 19.008 0 1.536.035 2.704.106 3.504.07.8.264 1.776.581 2.928.316 1.152.88 1.984 1.689 2.496.81.512 1.848.768 3.115.768 3.52 0 6.336-.96 8.448-2.88 2.887 1.856 4.33 3.744 4.33 5.664 0 1.792-1.214 3.248-3.643 4.368s-5.333 1.68-8.712 1.68c-7.674 0-13.112-1.536-16.315-4.608-3.204-3.072-4.805-7.648-4.805-13.728z"/><path d="m315.85 56.448c1.548.704 2.886 1.616 4.012 2.736 1.127 1.12 1.69 2.288 1.69 3.504 0 2.624-2.059 4.88-6.178 6.768-4.118 1.888-9.31 2.832-15.576 2.832-10.278 0-18.532-3.024-24.763-9.072-6.23-6.048-9.345-13.968-9.345-23.76 0-10.24 3.115-18.256 9.345-24.048 6.231-5.792 14.661-8.688 25.291-8.688 5.703 0 10.49 1.008 14.362 3.024s5.808 4.496 5.808 7.44c0 1.536-.686 2.88-2.059 4.032s-3.467 1.92-6.283 2.304c-1.056-3.008-2.94-5.296-5.65-6.864s-5.544-2.352-8.501-2.352c-5.984 0-10.859 2.208-14.625 6.624-3.767 4.416-5.65 9.984-5.65 16.704 0 7.744 1.918 14.192 5.755 19.344s9.24 7.728 16.21 7.728c3.168 0 6.23-.688 9.187-2.064s5.28-3.44 6.97-6.192z"/><path d="m398.64 29.472v22.368c0 8.64.669 14.976 2.006 19.008-.985.512-2.886.768-5.702.768-2.886 0-4.822-.416-5.808-1.248s-1.478-2.24-1.478-4.224v-43.2c-4.647 10.496-10.56 26.56-17.741 48.192-1.127.256-2.429.384-3.907.384-3.661 0-5.914-.832-6.759-2.496-2.112-4.224-5.245-11.792-9.398-22.704-4.154-10.912-7.287-18.768-9.399-23.568v29.088c0 8.64.669 14.976 2.007 19.008-1.901.512-3.731.768-5.491.768-2.464 0-4.136-.416-5.016-1.248s-1.32-2.24-1.32-4.224c0-1.024.035-3.552.105-7.584.071-4.032.106-7.168.106-9.408v-24.192c0-7.168-.669-12.8-2.007-16.896 2.816-.512 5.316-.768 7.498-.768 4.013 0 7.075 1.536 9.187 4.608 2.675 3.904 5.298 8.784 7.867 14.64 2.57 5.856 4.541 10.8 5.914 14.832s3.291 9.824 5.755 17.376c5.914-20.224 12.461-35.904 19.642-47.04 1.83-2.944 4.822-4.416 8.976-4.416 2.745 0 5.033.256 6.864.768-1.267 3.84-1.901 10.976-1.901 21.408z"/><path d="m447.005 22.56c-1.056-2.432-3.027-4.448-5.914-6.048-2.886-1.6-5.878-2.4-8.976-2.4-3.59 0-6.6.8-9.029 2.4-2.428 1.6-3.643 3.968-3.643 7.104 0 1.92.669 3.536 2.007 4.848 1.337 1.312 3.08 2.336 5.227 3.072s4.505 1.424 7.075 2.064 5.139 1.376 7.709 2.208c2.569.832 4.928 1.824 7.075 2.976s3.89 2.816 5.227 4.992c1.338 2.176 2.007 4.768 2.007 7.776 0 3.776-.704 7.056-2.112 9.84s-3.362 4.944-5.861 6.48-5.192 2.656-8.079 3.36c-2.886.704-6.019 1.056-9.398 1.056-5.843 0-11.035-.96-15.576-2.88s-6.811-4.192-6.811-6.816 2.041-4.8 6.125-6.528c1.408 2.432 3.836 4.48 7.286 6.144s6.934 2.496 10.454 2.496c4.084 0 7.48-.848 10.191-2.544 2.71-1.696 4.065-4.272 4.065-7.728 0-2.048-.897-3.776-2.692-5.184-1.796-1.408-4.031-2.464-6.706-3.168s-5.597-1.584-8.765-2.64-6.089-2.208-8.765-3.456c-2.675-1.248-4.91-3.184-6.705-5.808s-2.693-5.792-2.693-9.504c0-5.696 2.358-10.112 7.075-13.248s10.56-4.704 17.53-4.704c2.957 0 5.913.336 8.87 1.008s5.527 1.76 7.709 3.264 3.274 3.248 3.274 5.232c0 3.328-2.394 5.44-7.181 6.336z"/></g></svg>
